# xmcd
#
# Track frame offsets: 
#        150
#        72842
#        118100
#        152262
#        234442
#        251250
#
# Disc length: 4252 seconds
#
# Revision: 0
# Processed by: cddbd v1.5.1PL2 Copyright (c) Steve Scherf et al.
# Submitted via: ExactAudioCopy v0.95a3
#
DISCID=3f109a06
DTITLE=Blueseum Zenei Mûhely - Blueseum
DYEAR=1995
DGENRE=Blues
TTITLE0=Cool One
TTITLE1=Stone-Fire
TTITLE2=Closin' Time
TTITLE3=So Far
TTITLE4=Dirty Fred's Boogie
TTITLE5=So Fine
EXTD=
EXTT0=
EXTT1=
EXTT2=
EXTT3=
EXTT4=
EXTT5=
PLAYORDER=
